<svg width="33" height="33" viewBox="0 0 568 501" fill="none" xmlns="http://www.w3.org/2000/svg">
<path d="M123.121 33.6637C188.241 82.5526 258.281 181.681 284 234.873C309.719 181.681 379.759 82.5526 444.879 33.6637C491.866 -1.61183 568 -28.9064 568 49.9544C568 65.8901 558.867 264.943 553.4 295.532C537.292 387.246 446.104 408.349 365.259 394.297C513.512 419.793 548.073 507.724 446.104 595.656C253.153 770.502 199.127 538.108 186.822 491.923C184.095 481.612 182.857 476.446 182.078 479.56C177.905 495.272 156.226 574.679 121.896 595.656C19.9266 507.724 54.4882 419.793 202.741 394.297C121.896 408.349 30.708 387.246 14.6004 295.532C9.13279 264.943 0 65.8901 0 49.9544C0 -28.9064 76.1338 -1.61183 123.121 33.6637Z" fill="white"/>
</svg>
